# xmcd
#
# Track frame offsets:
#	150
#	35082
#	54880
#	79897
#	93242
#	110080
#	125032
#	154537
#	169507
#	197110
#
# Disc length: 2882 seconds
#
# Revision: 1
# Processed by: cddbd v1.4PL0 Copyright (c) Steve Scherf et al.
# Submitted via: audiograbber 1.80
#
DISCID=7e0b400a
DTITLE=Climax Blues Band - Plays On
DYEAR=1900
DGENRE=
TTITLE0=Flight
TTITLE1=Hey Baby Everything's Gonna Be Alright, Yeh, Yeh, Yeh
TTITLE2=Cubano Chant
TTITLE3=Little Girl
TTITLE4=Mum's The Word
TTITLE5=Twenty Past Two Temptation Rag
TTITLE6=So Many Roads
TTITLE7=City Ways
TTITLE8=Crazy 'bout My Baby
TTITLE9=Like Uncle Charlie
EXTD=
EXTT0=
EXTT1=
EXTT2=
EXTT3=
EXTT4=
EXTT5=
EXTT6=
EXTT7=
EXTT8=
EXTT9=
PLAYORDER=
